HIERARCHY
ROOT Hips
{
	OFFSET 0.000000 0.000000 0.000000
	CHANNELS 6 Xposition Yposition Zposition Xrotation Yrotation Zrotation
	JOINT C_ctrl
	{
		OFFSET 0.000000 35.040482 -0.000011
		CHANNELS 3 Xrotation Yrotation Zrotation
		JOINT Bip01
		{
			OFFSET -41.537640 41.789009 -0.000007
			CHANNELS 3 Xrotation Yrotation Zrotation
			JOINT Bip01_Pelvis
			{
				OFFSET -2.462887 0.000000 0.000000
				CHANNELS 3 Xrotation Yrotation Zrotation
				JOINT BN_Tail_01
				{
					OFFSET -11.399368 7.351341 -0.000013
					CHANNELS 3 Xrotation Yrotation Zrotation
					JOINT BN_Tail_02
					{
						OFFSET -11.365196 -0.343025 0.000012
						CHANNELS 3 Xrotation Yrotation Zrotation
						JOINT BN_Tail_03
						{
							OFFSET -15.076256 -0.454979 0.000017
							CHANNELS 3 Xrotation Yrotation Zrotation
							JOINT BN_Tail_04
							{
								OFFSET -17.395691 -0.525002 0.000016
								CHANNELS 3 Xrotation Yrotation Zrotation
								JOINT BN_Tail_05
								{
									OFFSET -16.699837 -0.504005 0.000016
									CHANNELS 3 Xrotation Yrotation Zrotation
									End Site
									{
										OFFSET 0.503998 -16.699829 0.000067
									}
								}
							}
						}
					}
				}
				JOINT Bip01_Spine
				{
					OFFSET 8.297798 5.916809 -0.000020
					CHANNELS 3 Xrotation Yrotation Zrotation
					JOINT Bip01_R_Thigh
					{
						OFFSET -8.297779 -5.916794 10.541781
						CHANNELS 3 Xrotation Yrotation Zrotation
						JOINT Bip01_R_Calf
						{
							OFFSET 5.631542 -22.906792 0.862690
							CHANNELS 3 Xrotation Yrotation Zrotation
							JOINT Bip01_R_HorseLink
							{
								OFFSET -16.984341 -19.231926 -3.555767
								CHANNELS 3 Xrotation Yrotation Zrotation
								JOINT Bip01_R_Foot
								{
									OFFSET 4.290367 -24.783146 0.578056
									CHANNELS 3 Xrotation Yrotation Zrotation
									JOINT Bip01_R_Toe0
									{
										OFFSET 3.561211 -5.815116 0.760802
										CHANNELS 3 Xrotation Yrotation Zrotation
										JOINT Bip01_R_Toe0Nub
										{
											OFFSET 16.135469 0.002017 1.534789
											CHANNELS 3 Xrotation Yrotation Zrotation
											End Site
											{
												OFFSET -0.000002 16.208284 -0.000056
											}
										}
									}
								}
							}
						}
					}
					JOINT Bip01_L_Thigh
					{
						OFFSET -8.297813 -5.916832 -10.541739
						CHANNELS 3 Xrotation Yrotation Zrotation
						JOINT Bip01_L_Calf
						{
							OFFSET 5.631535 -22.906792 -0.862625
							CHANNELS 3 Xrotation Yrotation Zrotation
							JOINT Bip01_L_HorseLink
							{
								OFFSET -16.984318 -19.231949 3.555875
								CHANNELS 3 Xrotation Yrotation Zrotation
								JOINT Bip01_L_Foot
								{
									OFFSET 4.290367 -24.783169 -0.577965
									CHANNELS 3 Xrotation Yrotation Zrotation
									JOINT Bip01_L_Toe0
									{
										OFFSET 3.561245 -5.815111 -0.760799
										CHANNELS 3 Xrotation Yrotation Zrotation
										JOINT Bip01_L_Toe0Nub
										{
											OFFSET 6.574303 -0.000005 -1.538561
											CHANNELS 3 Xrotation Yrotation Zrotation
											End Site
											{
												OFFSET 0.000004 -6.751935 0.000023
											}
										}
									}
								}
							}
						}
					}
					JOINT Bip01_Spine1
					{
						OFFSET 20.556803 -4.626213 -0.000025
						CHANNELS 3 Xrotation Yrotation Zrotation
						JOINT Saddle
						{
							OFFSET 17.608810 18.174690 -0.000143
							CHANNELS 3 Xrotation Yrotation Zrotation
							End Site
							{
								OFFSET -0.000063 -0.000061 -22.448387
							}
						}
						JOINT BN_center
						{
							OFFSET 10.743275 -13.417107 -0.172041
							CHANNELS 3 Xrotation Yrotation Zrotation
							End Site
							{
								OFFSET 22.434088 0.553078 -0.579614
							}
						}
						JOINT Bip01_Spine2
						{
							OFFSET 24.765072 -2.054115 -0.000032
							CHANNELS 3 Xrotation Yrotation Zrotation
							JOINT Handle
							{
								OFFSET 63.735676 16.430748 -16.052464
								CHANNELS 3 Xrotation Yrotation Zrotation
								JOINT IK_Chain01
								{
									OFFSET -4.713058 -6.020439 0.185448
									CHANNELS 3 Xrotation Yrotation Zrotation
									End Site
									{
										OFFSET -0.000023 -0.000023 -7.648071
									}
								}
							}
							JOINT BN_hair04_01
							{
								OFFSET 1.987491 16.256981 -2.049672
								CHANNELS 3 Xrotation Yrotation Zrotation
								JOINT BN_hair04_02
								{
									OFFSET -1.318762 -3.831451 -6.174704
									CHANNELS 3 Xrotation Yrotation Zrotation
									JOINT BN_hair04_03
									{
										OFFSET -0.827490 -5.886627 -5.656666
										CHANNELS 3 Xrotation Yrotation Zrotation
										End Site
										{
											OFFSET -2.658262 5.010620 -5.929780
										}
									}
								}
							}
							JOINT Bip01_Neck
							{
								OFFSET 25.574577 9.433014 -0.000084
								CHANNELS 3 Xrotation Yrotation Zrotation
								JOINT Bip01_R_Clavicle
								{
									OFFSET -16.535652 0.011192 6.705692
									CHANNELS 3 Xrotation Yrotation Zrotation
									JOINT Bip01_R_UpperArm
									{
										OFFSET 20.272621 -12.959984 2.510816
										CHANNELS 3 Xrotation Yrotation Zrotation
										JOINT Bip01_R_Forearm
										{
											OFFSET -13.633509 -15.503704 -0.653585
											CHANNELS 3 Xrotation Yrotation Zrotation
											JOINT Bip01_R_Hand
											{
												OFFSET 2.580030 -27.804676 -1.136415
												CHANNELS 3 Xrotation Yrotation Zrotation
												JOINT Bip01_R_Finger0
												{
													OFFSET -0.281744 -19.659061 -0.398649
													CHANNELS 3 Xrotation Yrotation Zrotation
													JOINT Bip01_Xtra02
													{
														OFFSET 4.152210 -5.712314 0.433813
														CHANNELS 3 Xrotation Yrotation Zrotation
														JOINT Bip01_Xtra02Nub
														{
															OFFSET 15.457960 0.041654 0.507982
															CHANNELS 3 Xrotation Yrotation Zrotation
															End Site
															{
																OFFSET -15.421730 -0.157725 -1.163459
															}
														}
													}
													JOINT Bip01_R_Finger0Nub
													{
														OFFSET 8.362326 -9.718440 -0.143142
														CHANNELS 3 Xrotation Yrotation Zrotation
														End Site
														{
															OFFSET -1.213036 -0.198171 9.872291
														}
													}
												}
											}
										}
									}
								}
								JOINT Bip01_L_Clavicle
								{
									OFFSET -16.535673 0.011162 -6.705583
									CHANNELS 3 Xrotation Yrotation Zrotation
									JOINT Bip01_L_UpperArm
									{
										OFFSET 20.272615 -12.959999 -2.510836
										CHANNELS 3 Xrotation Yrotation Zrotation
										JOINT Bip01_L_Forearm
										{
											OFFSET -13.633495 -15.503681 0.653678
											CHANNELS 3 Xrotation Yrotation Zrotation
											JOINT Bip01_L_Hand
											{
												OFFSET 2.579988 -27.804686 1.136487
												CHANNELS 3 Xrotation Yrotation Zrotation
												JOINT Bip01_L_Finger0
												{
													OFFSET -0.281765 -19.659058 0.398696
													CHANNELS 3 Xrotation Yrotation Zrotation
													JOINT Bip01_Xtra01
													{
														OFFSET 4.083549 -5.738758 -0.666714
														CHANNELS 3 Xrotation Yrotation Zrotation
														JOINT Bip01_Xtra01Nub
														{
															OFFSET 6.758158 -0.395525 -0.023239
															CHANNELS 3 Xrotation Yrotation Zrotation
															End Site
															{
																OFFSET 6.764923 -0.254147 -0.029908
															}
														}
													}
													JOINT Bip01_L_Finger0Nub
													{
														OFFSET -0.012636 -9.629153 0.045740
														CHANNELS 3 Xrotation Yrotation Zrotation
														End Site
														{
															OFFSET 0.988407 0.004791 8.293357
														}
													}
												}
											}
										}
									}
								}
								JOINT BN_hair03_01
								{
									OFFSET -5.894140 16.270622 -2.498433
									CHANNELS 3 Xrotation Yrotation Zrotation
									JOINT BN_hair03_02
									{
										OFFSET -0.189278 -7.800507 -6.219162
										CHANNELS 3 Xrotation Yrotation Zrotation
										JOINT BN_hair03_03
										{
											OFFSET 0.612345 -10.844475 -3.370718
											CHANNELS 3 Xrotation Yrotation Zrotation
											End Site
											{
												OFFSET -2.273296 2.862007 -10.769416
											}
										}
									}
								}
								JOINT Bip01_Neck1
								{
									OFFSET 9.383755 11.908699 -0.000007
									CHANNELS 3 Xrotation Yrotation Zrotation
									JOINT BN_hair02_01
									{
										OFFSET 9.126320 18.808022 -1.420810
										CHANNELS 3 Xrotation Yrotation Zrotation
										JOINT BN_hair02_02
										{
											OFFSET 0.393478 -5.181091 -5.248574
											CHANNELS 3 Xrotation Yrotation Zrotation
											JOINT BN_hair02_03
											{
												OFFSET 0.762280 -8.167076 -0.230047
												CHANNELS 3 Xrotation Yrotation Zrotation
												End Site
												{
													OFFSET -0.025837 -1.251419 -8.109770
												}
											}
										}
									}
									JOINT Bip01_Head
									{
										OFFSET 14.266129 10.475403 -0.000008
										CHANNELS 3 Xrotation Yrotation Zrotation
										JOINT BN_Reins_01
										{
											OFFSET 18.547455 -15.740112 -0.000035
											CHANNELS 3 Xrotation Yrotation Zrotation
											JOINT BN_Reins_02
											{
												OFFSET -5.372810 -5.884506 0.000028
												CHANNELS 3 Xrotation Yrotation Zrotation
												JOINT BN_Reins_03
												{
													OFFSET -6.395866 -15.947449 0.000070
													CHANNELS 3 Xrotation Yrotation Zrotation
													JOINT BN_Halter_R_01
													{
														OFFSET -1.234055 -3.096100 7.096737
														CHANNELS 3 Xrotation Yrotation Zrotation
														End Site
														{
															OFFSET 10.514435 -4.176861 -0.000004
														}
													}
													JOINT BN_Halter_L_01
													{
														OFFSET -1.234062 -3.096146 -7.096726
														CHANNELS 3 Xrotation Yrotation Zrotation
														End Site
														{
															OFFSET -10.514435 4.176865 -0.000000
														}
													}
													JOINT BN_Reins_04
													{
														OFFSET -6.737644 -16.971684 0.000074
														CHANNELS 3 Xrotation Yrotation Zrotation
														JOINT BN_Halter_R_02
														{
															OFFSET -4.688869 -11.781956 7.096771
															CHANNELS 3 Xrotation Yrotation Zrotation
															End Site
															{
																OFFSET 14.669624 -5.827511 -0.000006
															}
														}
														JOINT BN_Halter_L_02
														{
															OFFSET -4.688892 -11.782017 -7.096693
															CHANNELS 3 Xrotation Yrotation Zrotation
															End Site
															{
																OFFSET -14.669624 5.827507 -0.000002
															}
														}
														JOINT BN_Reins_05
														{
															OFFSET -6.822578 -16.971161 0.000074
															CHANNELS 3 Xrotation Yrotation Zrotation
															JOINT BN_Reins_06
															{
																OFFSET -6.140354 -15.095148 0.000066
																CHANNELS 3 Xrotation Yrotation Zrotation
																End Site
																{
																	OFFSET -15.095150 6.140352 -0.000002
																}
															}
														}
													}
												}
											}
										}
										JOINT BN_hair01_01
										{
											OFFSET 8.957344 8.870956 0.112121
											CHANNELS 3 Xrotation Yrotation Zrotation
											JOINT BN_hair01_02
											{
												OFFSET 6.002075 -2.962952 -3.121264
												CHANNELS 3 Xrotation Yrotation Zrotation
												End Site
												{
													OFFSET 5.917702 3.813591 -2.232396
												}
											}
										}
										JOINT BN_Eyebrow_R
										{
											OFFSET 11.795959 -0.430496 4.449781
											CHANNELS 3 Xrotation Yrotation Zrotation
											JOINT Bip01_Xtra06Nub
											{
												OFFSET 2.936661 -0.262573 3.246701
												CHANNELS 3 Xrotation Yrotation Zrotation
												End Site
												{
													OFFSET 2.768745 0.208199 3.394807
												}
											}
										}
										JOINT BN_Eyebrow_L
										{
											OFFSET 11.586395 -0.445618 -4.441728
											CHANNELS 3 Xrotation Yrotation Zrotation
											JOINT Bip01_Xtra05Nub
											{
												OFFSET 3.244698 -0.349442 -4.416700
												CHANNELS 3 Xrotation Yrotation Zrotation
												End Site
												{
													OFFSET 3.053162 0.072495 -4.564033
												}
											}
										}
										JOINT Bip01_R_Ear_01
										{
											OFFSET 7.142960 7.567184 4.311657
											CHANNELS 3 Xrotation Yrotation Zrotation
											JOINT Bip01_Xtra04Nub
											{
												OFFSET 9.464531 9.264214 1.682953
												CHANNELS 3 Xrotation Yrotation Zrotation
												End Site
												{
													OFFSET 8.448181 10.159340 1.910823
												}
											}
										}
										JOINT Bip01__L_Ear_01
										{
											OFFSET 7.214943 7.717056 -4.356771
											CHANNELS 3 Xrotation Yrotation Zrotation
											JOINT Bip01_Xtra03Nub
											{
												OFFSET 9.230225 8.944366 -2.322746
												CHANNELS 3 Xrotation Yrotation Zrotation
												End Site
												{
													OFFSET 8.170288 9.841324 -2.643566
												}
											}
										}
										JOINT Bip01_Jaw
										{
											OFFSET 9.196068 -4.110695 -0.000013
											CHANNELS 3 Xrotation Yrotation Zrotation
											JOINT Bip01_Ponytail1Nub
											{
												OFFSET 10.976463 -21.082108 -0.000053
												CHANNELS 3 Xrotation Yrotation Zrotation
												End Site
												{
													OFFSET 11.247093 -20.938980 0.000113
												}
											}
										}
										JOINT Bip01_HeadNub
										{
											OFFSET 29.954575 -18.249489 -0.000063
											CHANNELS 3 Xrotation Yrotation Zrotation
											End Site
											{
												OFFSET -9.198448 -13.366348 0.000168
											}
										}
									}
								}
							}
						}
					}
				}
			}
		}
	}
}
MOTION
Frames: 5
Frame Time: 0.033333
0.000000 0.000000 0.000000 0.000008 0.000000 -0.000000 -0.000000 0.000000 -0.000000 1.307132 -1.968065 46.213152 0.000001 0.000002 -0.000006 -1.908741 1.541251 37.240189 -0.364934 -5.154021 -5.616154 -6.652979 -12.652537 -31.045081 -4.756362 -6.424282 -37.857263 1.717054 13.011735 -10.832911 0.055449 0.816193 3.005184 -9.763285 8.023864 -18.900749 9.382746 -4.124312 -53.653591 -9.415260 -6.017132 58.821972 7.685763 -2.423781 -35.927779 5.296011 0.052243 1.034183 0.000004 -0.000025 -0.000019 4.658775 1.379709 -21.980998 -6.993452 1.947266 -37.359403 9.357071 5.910009 58.209973 -8.884953 -5.968227 -35.422181 -3.602687 1.096290 -12.937119 0.008451 -0.000129 0.038663 -1.323221 -1.136519 2.061332 1.910565 2.524477 -28.068276 0.163011 -0.175386 0.016906 -0.007339 0.496914 2.788243 0.000078 -0.000113 -0.000055 -0.000035 -0.041862 0.027954 3.697616 0.523974 -1.165313 -0.602742 -0.145484 0.237525 -3.234846 -0.706999 1.192656 -3.617543 -0.717710 12.668545 -10.777248 3.541293 1.822884 9.152646 -5.043045 -10.101481 0.952173 -1.965215 55.392967 12.361604 0.494944 -104.540137 5.252605 -5.084380 -59.140450 0.599206 -4.313480 -5.824180 -0.802311 0.160617 -0.479868 -0.804181 0.123497 -0.482658 6.490719 -3.195842 5.066347 -1.194701 6.832602 -22.398717 -1.822228 2.365260 78.922078 -4.404263 -1.784365 -111.989107 -6.870314 2.985292 -74.223912 0.152198 0.399749 -0.141852 0.028325 0.072123 2.451898 -0.000916 0.100646 2.451934 4.818160 0.470129 -0.811246 4.041111 -1.821564 6.841082 -9.210316 -9.183760 37.683848 -3.916354 -2.700648 2.123448 44.349190 2.642002 -1.664458 -13.577690 -1.747448 18.662032 -46.199120 0.592856 31.333544 11.251593 0.567148 -46.100587 -0.000062 -0.000322 -32.027676 -3.182384 2.973443 54.532640 -0.000126 -0.000124 -43.205864 -0.000019 -0.000033 -2.721287 0.000018 -0.000023 0.159842 -0.000221 -0.000146 -67.290969 -23.900797 -11.935528 -2.554912 34.949221 16.671930 -5.206572 -0.000121 -0.000131 -45.064082 0.000033 0.000035 -0.000044 13.322419 2.135002 24.839564 0.597446 1.763782 -4.807885 0.000018 -0.000050 0.000026 0.024292 -0.029985 11.786685 0.000039 -0.000046 -0.000008 0.023254 -0.032315 11.715939 14.889582 -57.069731 17.147468 0.050310 0.015201 11.755997 11.882850 61.137003 -12.551384 0.050183 0.014850 11.743088 -0.000087 -0.000032 -7.813466 -0.004450 -0.052686 11.750665 0.000062 -0.000010 11.750662 
0.000000 0.000000 0.000000 0.000008 0.000000 -0.000000 -0.000000 0.000000 -0.000000 1.220576 -1.594841 44.515765 0.000001 0.000002 -0.000008 -2.436636 2.131301 37.986876 0.232785 -4.825303 -0.568704 -4.876469 -12.670527 -23.854381 -8.155633 -9.168453 -43.544809 1.961078 7.767582 -20.134076 0.044405 0.734696 3.295667 -9.757336 7.713463 -19.009890 9.191008 -3.898192 -52.166782 -9.398780 -5.986459 58.647556 7.801851 -2.877958 -35.723938 5.084299 0.048148 0.977474 0.000004 -0.000023 -0.000019 4.634747 1.279739 -20.706632 -6.977132 1.936191 -37.260099 9.241627 5.704880 57.030819 -8.816484 -6.285682 -33.930918 -3.655021 1.203243 -13.197554 0.008451 -0.000128 0.038663 -1.243002 -1.114565 2.116798 1.565008 2.295132 -26.458467 0.163011 -0.175386 0.016907 0.010219 0.435706 2.877436 0.000078 -0.000112 -0.000055 -0.000015 -0.069867 0.027957 3.697612 0.523970 -1.165314 -0.602737 -0.145480 0.237526 -3.234845 -0.707002 1.192652 -3.499685 -0.738270 13.545430 -10.900561 4.163675 3.555422 8.045786 -6.359467 -10.908066 1.043051 -2.029045 58.102937 13.680758 -0.401799 -107.231436 5.110804 -4.565710 -58.282940 0.600622 -4.330712 -5.847245 -0.802418 0.160616 -0.479878 -0.804180 0.123498 -0.482652 6.151977 -3.239624 4.263931 -1.379194 7.088782 -21.612035 -1.770615 2.352806 77.626548 -4.353067 -2.267825 -111.697423 -6.723975 2.812111 -72.894764 0.143254 0.376268 -0.133501 0.028379 0.072123 2.451902 -0.000916 0.100645 2.451938 4.818127 0.470106 -0.811259 6.600144 -0.913484 4.061746 -7.388567 -8.753039 36.467941 -3.772116 -2.477043 3.514204 48.393605 2.621570 -1.738680 -5.342220 -0.889984 15.228947 -53.437580 0.033916 30.809955 10.822803 0.081122 -46.540390 -0.000062 -0.000322 -32.027672 -3.189423 3.085040 53.883478 0.000552 -0.000396 -43.405965 -0.000019 -0.000034 -2.721287 0.000018 -0.000023 0.159842 0.000175 -0.000305 -67.609686 -23.900797 -11.935532 -2.554914 34.949224 16.671930 -5.206574 -0.000122 -0.000131 -45.246581 0.000033 0.000034 -0.000041 15.085801 2.581902 28.265756 4.193979 4.056099 -8.535745 -0.000000 -0.000061 0.000036 0.024361 -0.029966 11.786761 0.000049 -0.000010 -0.000002 0.023285 -0.032313 11.715898 16.463348 -58.804971 18.573863 0.050357 0.015292 11.756008 13.876466 63.845528 -14.696188 0.050231 0.014936 11.743064 -0.000082 -0.000024 -6.920046 -0.004381 -0.052769 11.750667 0.000062 -0.000010 11.750663 
0.000000 0.000000 0.000000 0.000008 0.000000 -0.000000 -0.000000 0.000000 -0.000000 1.139238 -1.198161 42.699460 0.000001 0.000002 -0.000007 -2.961990 2.703060 38.724560 0.737754 -4.534418 4.074133 -2.622629 -11.830022 -14.594002 -11.310018 -11.363377 -47.121297 0.402836 2.512038 -29.329006 0.031944 0.637299 3.608755 -9.691157 7.342636 -19.226863 8.917326 -3.594828 -50.116974 -9.356618 -5.909034 58.205889 7.926182 -3.347689 -35.609830 4.671959 0.040653 0.890705 0.000004 -0.000024 -0.000019 4.602409 1.164113 -19.411408 -6.892554 1.879461 -36.747237 9.074889 5.424841 55.398066 -8.699799 -6.609902 -32.253089 -3.738423 1.286800 -13.518604 0.008451 -0.000127 0.038663 -1.147414 -1.089157 2.145251 1.232654 2.060843 -24.881537 0.163011 -0.175386 0.016905 0.031741 0.362569 2.947488 0.000078 -0.000112 -0.000052 -0.000015 -0.083883 0.027955 3.697589 0.523974 -1.165273 -0.602737 -0.145481 0.237527 -3.234849 -0.707002 1.192655 -3.381854 -0.755362 14.379454 -10.688965 4.605156 4.478148 6.664510 -7.049804 -11.311870 1.110603 -2.072492 60.062805 14.668895 -1.410847 -109.266504 5.000353 -4.066890 -58.084619 0.602164 -4.347650 -5.869921 -0.802203 0.160618 -0.479859 -0.804180 0.123496 -0.482654 5.808921 -3.237746 3.283724 -1.597452 7.337520 -20.564311 -1.700331 2.333840 75.850207 -4.287866 -2.767166 -111.390441 -6.576326 2.637610 -71.535406 0.134481 0.353207 -0.125320 0.028487 0.072121 2.451897 -0.000915 0.100645 2.451937 4.818105 0.470102 -0.811269 8.345715 1.456813 -3.526365 -3.623823 -7.710780 32.802117 -3.634378 -2.255703 4.850235 52.357088 2.569610 -1.774039 4.778613 0.284466 5.710856 -59.400202 -0.422946 30.024876 10.393303 -0.327200 -46.877456 -0.000062 -0.000322 -32.027676 -3.147382 3.155540 53.156203 -0.000128 -0.000125 -43.580688 -0.000019 -0.000034 -2.721287 0.000018 -0.000023 0.159844 -0.000223 -0.000146 -67.888003 -23.900797 -11.935528 -2.554914 34.949217 16.671928 -5.206576 -0.000123 -0.000131 -45.425525 0.000032 0.000035 -0.000044 16.817720 3.265435 31.592193 17.061102 9.012283 -15.222547 -0.000025 -0.000065 0.000058 0.024227 -0.030009 11.786594 0.000031 -0.000044 -0.000010 0.023344 -0.032297 11.715803 18.081249 -60.392847 20.048250 0.050266 0.015107 11.755977 16.163380 66.335576 -17.129951 0.050134 0.014754 11.743109 -0.000077 -0.000017 -6.016451 -0.004521 -0.052602 11.750666 0.000062 -0.000010 11.750660 
0.000000 0.000000 0.000000 0.000008 0.000000 -0.000000 -0.000000 0.000000 -0.000000 1.063979 -0.773329 40.726420 0.000001 0.000002 -0.000001 -3.372124 3.184502 38.301054 1.172755 -4.283873 8.352562 -0.841683 -10.540919 -5.837511 -12.792842 -13.061046 -46.825526 -2.731804 -2.013432 -38.149458 0.018185 0.524439 3.946766 -9.572958 6.912741 -19.509617 8.558440 -3.227813 -47.540179 -9.286135 -5.782632 57.480898 8.054948 -3.834443 -35.536296 4.255556 0.033730 0.802866 0.000004 -0.000025 -0.000019 4.558297 1.027160 -18.062213 -6.743889 1.782363 -35.852913 8.851555 5.075743 53.321808 -8.525836 -6.940037 -30.363241 -3.846896 1.371533 -13.899454 0.008451 -0.000127 0.038663 -1.036810 -1.060023 2.152502 0.829109 1.812099 -22.882003 0.163011 -0.175386 0.016906 0.056867 0.277945 3.003364 0.000078 -0.000112 -0.000058 0.000006 -0.125903 0.027951 3.697587 0.523971 -1.165275 -0.602732 -0.145483 0.237524 -3.234848 -0.707003 1.192653 -3.260540 -0.769399 15.188269 -10.117255 4.807029 4.257098 5.133027 -6.973368 -11.327259 1.144257 -2.092946 61.023765 15.214866 -2.507366 -110.554787 4.947265 -3.614335 -58.855501 0.603586 -4.364744 -5.892801 -0.802230 0.160617 -0.479862 -0.804181 0.123497 -0.482648 5.455132 -3.193726 2.128136 -1.852480 7.577132 -19.264354 -1.612578 2.306831 73.609775 -4.209791 -3.288561 -111.049512 -6.423482 2.458678 -70.112186 0.125587 0.329926 -0.117022 0.028270 0.072123 2.451898 -0.000917 0.100647 2.451940 4.818021 0.470094 -0.811253 10.630757 2.513248 -6.660150 -0.083895 -6.218781 26.382640 -3.498603 -2.031036 6.164187 56.072260 2.493412 -1.772814 14.075272 1.202703 2.088568 -61.882839 -0.700280 28.973420 9.959159 -0.673713 -47.116052 -0.000062 -0.000322 -32.027679 -3.064791 3.191457 52.331943 -0.000128 -0.000125 -43.732783 -0.000019 -0.000034 -2.721288 0.000018 -0.000023 0.159840 -0.000224 -0.000146 -68.130181 -23.900799 -11.935530 -2.554914 34.949217 16.671927 -5.206574 -0.000123 -0.000131 -45.572105 0.000033 0.000034 -0.000046 18.171660 3.976317 34.185746 21.293832 10.233732 -17.435308 -0.000087 -0.000055 0.000112 0.024243 -0.029999 11.786618 0.000035 -0.000011 0.000009 0.023221 -0.032323 11.715987 19.774613 -61.874171 21.599958 0.050271 0.015125 11.755983 18.851810 68.661125 -19.962836 0.050144 0.014778 11.743106 -0.000072 -0.000009 -5.103878 -0.004503 -0.052623 11.750659 0.000062 -0.000010 11.750664 
0.000000 0.000000 0.000000 0.000008 0.000000 -0.000000 -0.000000 0.000000 -0.000000 0.997830 -0.327062 38.609167 0.000001 0.000002 0.000001 -3.781781 3.673233 37.866815 1.555842 -4.109384 12.212034 0.303282 -9.059872 1.581689 -11.307575 -14.347273 -40.474605 -7.606477 -5.766232 -47.628722 0.003558 0.399174 4.303200 -9.411143 6.435758 -19.817509 8.117626 -2.818833 -44.519433 -9.184824 -5.607258 56.466294 8.181989 -4.326096 -35.457735 3.765053 0.026402 0.707797 0.000004 -0.000023 -0.000019 4.500611 0.864614 -16.667875 -6.535002 1.651424 -34.610812 8.569519 4.671069 50.850024 -8.288481 -7.264954 -28.280504 -3.986250 1.424505 -14.331919 0.008451 -0.000130 0.038663 -0.914067 -1.027554 2.143038 0.430640 1.546829 -20.864925 0.163011 -0.175386 0.016906 0.084652 0.184078 3.047636 0.000078 -0.000112 -0.000055 0.000054 -0.223933 0.027951 3.697538 0.523976 -1.165279 -0.602736 -0.145483 0.237529 -3.234847 -0.707004 1.192655 -3.135671 -0.780172 15.963597 -8.942185 4.710672 2.841110 3.020673 -5.999304 -10.886454 1.153136 -2.098214 61.275662 15.274308 -3.992799 -111.965413 4.984216 -3.203341 -61.291201 0.605073 -4.382023 -5.915979 -0.802257 0.160617 -0.479858 -0.804181 0.123496 -0.482656 5.094173 -3.110035 0.824849 -2.141206 7.797661 -17.746418 -1.510391 2.270542 70.963685 -4.121340 -3.823376 -110.663927 -6.252234 2.273834 -68.606976 0.116719 0.306441 -0.108700 0.028269 0.072121 2.451900 -0.000916 0.100646 2.451938 4.818182 0.470105 -0.811270 12.659580 2.639014 -6.966596 2.708380 -3.686519 15.352614 -3.364618 -1.803920 7.447608 59.817547 2.393170 -1.735254 21.271980 1.809176 1.582868 -50.699094 -0.953085 22.703914 9.528193 -0.961088 -47.246990 -0.000061 -0.000322 -32.027676 -2.945929 3.191683 51.410605 -0.000129 -0.000125 -43.858622 -0.000019 -0.000034 -2.721291 0.000018 -0.000023 0.159842 -0.000225 -0.000146 -68.330510 -23.900801 -11.935531 -2.554912 34.949224 16.671930 -5.206601 -0.000125 -0.000132 -45.693283 0.000033 0.000035 -0.000053 19.509602 4.843740 36.762725 24.441164 12.392078 -12.520314 0.000035 -0.000068 0.000016 0.024262 -0.029993 11.786640 0.000015 -0.000012 -0.000028 0.023237 -0.032328 11.715965 21.524139 -63.239069 23.211476 0.050285 0.015149 11.755986 21.991976 70.795628 -23.243445 0.050161 0.014802 11.743091 -0.000066 -0.000001 -4.182618 -0.004485 -0.052645 11.750666 0.000063 -0.000011 11.750657 
